%TF.GenerationSoftware,KiCad,Pcbnew,7.0.9*%
%TF.CreationDate,2024-01-28T22:41:43+11:00*%
%TF.ProjectId,power-module,706f7765-722d-46d6-9f64-756c652e6b69,rev?*%
%TF.SameCoordinates,Original*%
%TF.FileFunction,Legend,Top*%
%TF.FilePolarity,Positive*%
%FSLAX46Y46*%
G04 Gerber Fmt 4.6, Leading zero omitted, Abs format (unit mm)*
G04 Created by KiCad (PCBNEW 7.0.9) date 2024-01-28 22:41:43*
%MOMM*%
%LPD*%
G01*
G04 APERTURE LIST*
%ADD10C,0.150000*%
%ADD11C,0.120000*%
%ADD12C,1.200000*%
%ADD13C,1.600000*%
%ADD14O,1.600000X1.600000*%
%ADD15C,4.000000*%
%ADD16C,2.340000*%
%ADD17R,2.020000X5.020000*%
%ADD18O,2.020000X5.020000*%
%ADD19O,3.500000X2.200000*%
%ADD20R,2.500000X1.500000*%
%ADD21O,2.500000X1.500000*%
%ADD22R,1.600000X1.600000*%
%ADD23C,2.000000*%
%ADD24R,1.700000X1.700000*%
%ADD25O,1.700000X1.700000*%
%ADD26R,1.905000X2.000000*%
%ADD27O,1.905000X2.000000*%
G04 APERTURE END LIST*
D10*
X153319580Y-64821666D02*
X153367200Y-64869285D01*
X153367200Y-64869285D02*
X153414819Y-65012142D01*
X153414819Y-65012142D02*
X153414819Y-65107380D01*
X153414819Y-65107380D02*
X153367200Y-65250237D01*
X153367200Y-65250237D02*
X153271961Y-65345475D01*
X153271961Y-65345475D02*
X153176723Y-65393094D01*
X153176723Y-65393094D02*
X152986247Y-65440713D01*
X152986247Y-65440713D02*
X152843390Y-65440713D01*
X152843390Y-65440713D02*
X152652914Y-65393094D01*
X152652914Y-65393094D02*
X152557676Y-65345475D01*
X152557676Y-65345475D02*
X152462438Y-65250237D01*
X152462438Y-65250237D02*
X152414819Y-65107380D01*
X152414819Y-65107380D02*
X152414819Y-65012142D01*
X152414819Y-65012142D02*
X152462438Y-64869285D01*
X152462438Y-64869285D02*
X152510057Y-64821666D01*
X152748152Y-63964523D02*
X153414819Y-63964523D01*
X152367200Y-64202618D02*
X153081485Y-64440713D01*
X153081485Y-64440713D02*
X153081485Y-63821666D01*
X166318333Y-63784580D02*
X166270714Y-63832200D01*
X166270714Y-63832200D02*
X166127857Y-63879819D01*
X166127857Y-63879819D02*
X166032619Y-63879819D01*
X166032619Y-63879819D02*
X165889762Y-63832200D01*
X165889762Y-63832200D02*
X165794524Y-63736961D01*
X165794524Y-63736961D02*
X165746905Y-63641723D01*
X165746905Y-63641723D02*
X165699286Y-63451247D01*
X165699286Y-63451247D02*
X165699286Y-63308390D01*
X165699286Y-63308390D02*
X165746905Y-63117914D01*
X165746905Y-63117914D02*
X165794524Y-63022676D01*
X165794524Y-63022676D02*
X165889762Y-62927438D01*
X165889762Y-62927438D02*
X166032619Y-62879819D01*
X166032619Y-62879819D02*
X166127857Y-62879819D01*
X166127857Y-62879819D02*
X166270714Y-62927438D01*
X166270714Y-62927438D02*
X166318333Y-62975057D01*
X167223095Y-62879819D02*
X166746905Y-62879819D01*
X166746905Y-62879819D02*
X166699286Y-63356009D01*
X166699286Y-63356009D02*
X166746905Y-63308390D01*
X166746905Y-63308390D02*
X166842143Y-63260771D01*
X166842143Y-63260771D02*
X167080238Y-63260771D01*
X167080238Y-63260771D02*
X167175476Y-63308390D01*
X167175476Y-63308390D02*
X167223095Y-63356009D01*
X167223095Y-63356009D02*
X167270714Y-63451247D01*
X167270714Y-63451247D02*
X167270714Y-63689342D01*
X167270714Y-63689342D02*
X167223095Y-63784580D01*
X167223095Y-63784580D02*
X167175476Y-63832200D01*
X167175476Y-63832200D02*
X167080238Y-63879819D01*
X167080238Y-63879819D02*
X166842143Y-63879819D01*
X166842143Y-63879819D02*
X166746905Y-63832200D01*
X166746905Y-63832200D02*
X166699286Y-63784580D01*
X147153333Y-62092819D02*
X146820000Y-61616628D01*
X146581905Y-62092819D02*
X146581905Y-61092819D01*
X146581905Y-61092819D02*
X146962857Y-61092819D01*
X146962857Y-61092819D02*
X147058095Y-61140438D01*
X147058095Y-61140438D02*
X147105714Y-61188057D01*
X147105714Y-61188057D02*
X147153333Y-61283295D01*
X147153333Y-61283295D02*
X147153333Y-61426152D01*
X147153333Y-61426152D02*
X147105714Y-61521390D01*
X147105714Y-61521390D02*
X147058095Y-61569009D01*
X147058095Y-61569009D02*
X146962857Y-61616628D01*
X146962857Y-61616628D02*
X146581905Y-61616628D01*
X148105714Y-62092819D02*
X147534286Y-62092819D01*
X147820000Y-62092819D02*
X147820000Y-61092819D01*
X147820000Y-61092819D02*
X147724762Y-61235676D01*
X147724762Y-61235676D02*
X147629524Y-61330914D01*
X147629524Y-61330914D02*
X147534286Y-61378533D01*
X177284761Y-44469819D02*
X176951428Y-43993628D01*
X176713333Y-44469819D02*
X176713333Y-43469819D01*
X176713333Y-43469819D02*
X177094285Y-43469819D01*
X177094285Y-43469819D02*
X177189523Y-43517438D01*
X177189523Y-43517438D02*
X177237142Y-43565057D01*
X177237142Y-43565057D02*
X177284761Y-43660295D01*
X177284761Y-43660295D02*
X177284761Y-43803152D01*
X177284761Y-43803152D02*
X177237142Y-43898390D01*
X177237142Y-43898390D02*
X177189523Y-43946009D01*
X177189523Y-43946009D02*
X177094285Y-43993628D01*
X177094285Y-43993628D02*
X176713333Y-43993628D01*
X177570476Y-43469819D02*
X177903809Y-44469819D01*
X177903809Y-44469819D02*
X178237142Y-43469819D01*
X179094285Y-44469819D02*
X178522857Y-44469819D01*
X178808571Y-44469819D02*
X178808571Y-43469819D01*
X178808571Y-43469819D02*
X178713333Y-43612676D01*
X178713333Y-43612676D02*
X178618095Y-43707914D01*
X178618095Y-43707914D02*
X178522857Y-43755533D01*
X118781666Y-49604819D02*
X118781666Y-50319104D01*
X118781666Y-50319104D02*
X118734047Y-50461961D01*
X118734047Y-50461961D02*
X118638809Y-50557200D01*
X118638809Y-50557200D02*
X118495952Y-50604819D01*
X118495952Y-50604819D02*
X118400714Y-50604819D01*
X119781666Y-50604819D02*
X119210238Y-50604819D01*
X119495952Y-50604819D02*
X119495952Y-49604819D01*
X119495952Y-49604819D02*
X119400714Y-49747676D01*
X119400714Y-49747676D02*
X119305476Y-49842914D01*
X119305476Y-49842914D02*
X119210238Y-49890533D01*
X132672200Y-56838332D02*
X132719819Y-56695475D01*
X132719819Y-56695475D02*
X132719819Y-56457380D01*
X132719819Y-56457380D02*
X132672200Y-56362142D01*
X132672200Y-56362142D02*
X132624580Y-56314523D01*
X132624580Y-56314523D02*
X132529342Y-56266904D01*
X132529342Y-56266904D02*
X132434104Y-56266904D01*
X132434104Y-56266904D02*
X132338866Y-56314523D01*
X132338866Y-56314523D02*
X132291247Y-56362142D01*
X132291247Y-56362142D02*
X132243628Y-56457380D01*
X132243628Y-56457380D02*
X132196009Y-56647856D01*
X132196009Y-56647856D02*
X132148390Y-56743094D01*
X132148390Y-56743094D02*
X132100771Y-56790713D01*
X132100771Y-56790713D02*
X132005533Y-56838332D01*
X132005533Y-56838332D02*
X131910295Y-56838332D01*
X131910295Y-56838332D02*
X131815057Y-56790713D01*
X131815057Y-56790713D02*
X131767438Y-56743094D01*
X131767438Y-56743094D02*
X131719819Y-56647856D01*
X131719819Y-56647856D02*
X131719819Y-56409761D01*
X131719819Y-56409761D02*
X131767438Y-56266904D01*
X131719819Y-55933570D02*
X132719819Y-55695475D01*
X132719819Y-55695475D02*
X132005533Y-55504999D01*
X132005533Y-55504999D02*
X132719819Y-55314523D01*
X132719819Y-55314523D02*
X131719819Y-55076428D01*
X131719819Y-54790713D02*
X131719819Y-54171666D01*
X131719819Y-54171666D02*
X132100771Y-54504999D01*
X132100771Y-54504999D02*
X132100771Y-54362142D01*
X132100771Y-54362142D02*
X132148390Y-54266904D01*
X132148390Y-54266904D02*
X132196009Y-54219285D01*
X132196009Y-54219285D02*
X132291247Y-54171666D01*
X132291247Y-54171666D02*
X132529342Y-54171666D01*
X132529342Y-54171666D02*
X132624580Y-54219285D01*
X132624580Y-54219285D02*
X132672200Y-54266904D01*
X132672200Y-54266904D02*
X132719819Y-54362142D01*
X132719819Y-54362142D02*
X132719819Y-54647856D01*
X132719819Y-54647856D02*
X132672200Y-54743094D01*
X132672200Y-54743094D02*
X132624580Y-54790713D01*
X164298333Y-44439819D02*
X163965000Y-43963628D01*
X163726905Y-44439819D02*
X163726905Y-43439819D01*
X163726905Y-43439819D02*
X164107857Y-43439819D01*
X164107857Y-43439819D02*
X164203095Y-43487438D01*
X164203095Y-43487438D02*
X164250714Y-43535057D01*
X164250714Y-43535057D02*
X164298333Y-43630295D01*
X164298333Y-43630295D02*
X164298333Y-43773152D01*
X164298333Y-43773152D02*
X164250714Y-43868390D01*
X164250714Y-43868390D02*
X164203095Y-43916009D01*
X164203095Y-43916009D02*
X164107857Y-43963628D01*
X164107857Y-43963628D02*
X163726905Y-43963628D01*
X164631667Y-43439819D02*
X165250714Y-43439819D01*
X165250714Y-43439819D02*
X164917381Y-43820771D01*
X164917381Y-43820771D02*
X165060238Y-43820771D01*
X165060238Y-43820771D02*
X165155476Y-43868390D01*
X165155476Y-43868390D02*
X165203095Y-43916009D01*
X165203095Y-43916009D02*
X165250714Y-44011247D01*
X165250714Y-44011247D02*
X165250714Y-44249342D01*
X165250714Y-44249342D02*
X165203095Y-44344580D01*
X165203095Y-44344580D02*
X165155476Y-44392200D01*
X165155476Y-44392200D02*
X165060238Y-44439819D01*
X165060238Y-44439819D02*
X164774524Y-44439819D01*
X164774524Y-44439819D02*
X164679286Y-44392200D01*
X164679286Y-44392200D02*
X164631667Y-44344580D01*
X161643333Y-63784580D02*
X161595714Y-63832200D01*
X161595714Y-63832200D02*
X161452857Y-63879819D01*
X161452857Y-63879819D02*
X161357619Y-63879819D01*
X161357619Y-63879819D02*
X161214762Y-63832200D01*
X161214762Y-63832200D02*
X161119524Y-63736961D01*
X161119524Y-63736961D02*
X161071905Y-63641723D01*
X161071905Y-63641723D02*
X161024286Y-63451247D01*
X161024286Y-63451247D02*
X161024286Y-63308390D01*
X161024286Y-63308390D02*
X161071905Y-63117914D01*
X161071905Y-63117914D02*
X161119524Y-63022676D01*
X161119524Y-63022676D02*
X161214762Y-62927438D01*
X161214762Y-62927438D02*
X161357619Y-62879819D01*
X161357619Y-62879819D02*
X161452857Y-62879819D01*
X161452857Y-62879819D02*
X161595714Y-62927438D01*
X161595714Y-62927438D02*
X161643333Y-62975057D01*
X162500476Y-62879819D02*
X162310000Y-62879819D01*
X162310000Y-62879819D02*
X162214762Y-62927438D01*
X162214762Y-62927438D02*
X162167143Y-62975057D01*
X162167143Y-62975057D02*
X162071905Y-63117914D01*
X162071905Y-63117914D02*
X162024286Y-63308390D01*
X162024286Y-63308390D02*
X162024286Y-63689342D01*
X162024286Y-63689342D02*
X162071905Y-63784580D01*
X162071905Y-63784580D02*
X162119524Y-63832200D01*
X162119524Y-63832200D02*
X162214762Y-63879819D01*
X162214762Y-63879819D02*
X162405238Y-63879819D01*
X162405238Y-63879819D02*
X162500476Y-63832200D01*
X162500476Y-63832200D02*
X162548095Y-63784580D01*
X162548095Y-63784580D02*
X162595714Y-63689342D01*
X162595714Y-63689342D02*
X162595714Y-63451247D01*
X162595714Y-63451247D02*
X162548095Y-63356009D01*
X162548095Y-63356009D02*
X162500476Y-63308390D01*
X162500476Y-63308390D02*
X162405238Y-63260771D01*
X162405238Y-63260771D02*
X162214762Y-63260771D01*
X162214762Y-63260771D02*
X162119524Y-63308390D01*
X162119524Y-63308390D02*
X162071905Y-63356009D01*
X162071905Y-63356009D02*
X162024286Y-63451247D01*
X166874819Y-57921904D02*
X167684342Y-57921904D01*
X167684342Y-57921904D02*
X167779580Y-57874285D01*
X167779580Y-57874285D02*
X167827200Y-57826666D01*
X167827200Y-57826666D02*
X167874819Y-57731428D01*
X167874819Y-57731428D02*
X167874819Y-57540952D01*
X167874819Y-57540952D02*
X167827200Y-57445714D01*
X167827200Y-57445714D02*
X167779580Y-57398095D01*
X167779580Y-57398095D02*
X167684342Y-57350476D01*
X167684342Y-57350476D02*
X166874819Y-57350476D01*
X166874819Y-56969523D02*
X166874819Y-56350476D01*
X166874819Y-56350476D02*
X167255771Y-56683809D01*
X167255771Y-56683809D02*
X167255771Y-56540952D01*
X167255771Y-56540952D02*
X167303390Y-56445714D01*
X167303390Y-56445714D02*
X167351009Y-56398095D01*
X167351009Y-56398095D02*
X167446247Y-56350476D01*
X167446247Y-56350476D02*
X167684342Y-56350476D01*
X167684342Y-56350476D02*
X167779580Y-56398095D01*
X167779580Y-56398095D02*
X167827200Y-56445714D01*
X167827200Y-56445714D02*
X167874819Y-56540952D01*
X167874819Y-56540952D02*
X167874819Y-56826666D01*
X167874819Y-56826666D02*
X167827200Y-56921904D01*
X167827200Y-56921904D02*
X167779580Y-56969523D01*
X135608333Y-63784580D02*
X135560714Y-63832200D01*
X135560714Y-63832200D02*
X135417857Y-63879819D01*
X135417857Y-63879819D02*
X135322619Y-63879819D01*
X135322619Y-63879819D02*
X135179762Y-63832200D01*
X135179762Y-63832200D02*
X135084524Y-63736961D01*
X135084524Y-63736961D02*
X135036905Y-63641723D01*
X135036905Y-63641723D02*
X134989286Y-63451247D01*
X134989286Y-63451247D02*
X134989286Y-63308390D01*
X134989286Y-63308390D02*
X135036905Y-63117914D01*
X135036905Y-63117914D02*
X135084524Y-63022676D01*
X135084524Y-63022676D02*
X135179762Y-62927438D01*
X135179762Y-62927438D02*
X135322619Y-62879819D01*
X135322619Y-62879819D02*
X135417857Y-62879819D01*
X135417857Y-62879819D02*
X135560714Y-62927438D01*
X135560714Y-62927438D02*
X135608333Y-62975057D01*
X135941667Y-62879819D02*
X136560714Y-62879819D01*
X136560714Y-62879819D02*
X136227381Y-63260771D01*
X136227381Y-63260771D02*
X136370238Y-63260771D01*
X136370238Y-63260771D02*
X136465476Y-63308390D01*
X136465476Y-63308390D02*
X136513095Y-63356009D01*
X136513095Y-63356009D02*
X136560714Y-63451247D01*
X136560714Y-63451247D02*
X136560714Y-63689342D01*
X136560714Y-63689342D02*
X136513095Y-63784580D01*
X136513095Y-63784580D02*
X136465476Y-63832200D01*
X136465476Y-63832200D02*
X136370238Y-63879819D01*
X136370238Y-63879819D02*
X136084524Y-63879819D01*
X136084524Y-63879819D02*
X135989286Y-63832200D01*
X135989286Y-63832200D02*
X135941667Y-63784580D01*
X152269819Y-57921904D02*
X153079342Y-57921904D01*
X153079342Y-57921904D02*
X153174580Y-57874285D01*
X153174580Y-57874285D02*
X153222200Y-57826666D01*
X153222200Y-57826666D02*
X153269819Y-57731428D01*
X153269819Y-57731428D02*
X153269819Y-57540952D01*
X153269819Y-57540952D02*
X153222200Y-57445714D01*
X153222200Y-57445714D02*
X153174580Y-57398095D01*
X153174580Y-57398095D02*
X153079342Y-57350476D01*
X153079342Y-57350476D02*
X152269819Y-57350476D01*
X152365057Y-56921904D02*
X152317438Y-56874285D01*
X152317438Y-56874285D02*
X152269819Y-56779047D01*
X152269819Y-56779047D02*
X152269819Y-56540952D01*
X152269819Y-56540952D02*
X152317438Y-56445714D01*
X152317438Y-56445714D02*
X152365057Y-56398095D01*
X152365057Y-56398095D02*
X152460295Y-56350476D01*
X152460295Y-56350476D02*
X152555533Y-56350476D01*
X152555533Y-56350476D02*
X152698390Y-56398095D01*
X152698390Y-56398095D02*
X153269819Y-56969523D01*
X153269819Y-56969523D02*
X153269819Y-56350476D01*
X124813333Y-63784580D02*
X124765714Y-63832200D01*
X124765714Y-63832200D02*
X124622857Y-63879819D01*
X124622857Y-63879819D02*
X124527619Y-63879819D01*
X124527619Y-63879819D02*
X124384762Y-63832200D01*
X124384762Y-63832200D02*
X124289524Y-63736961D01*
X124289524Y-63736961D02*
X124241905Y-63641723D01*
X124241905Y-63641723D02*
X124194286Y-63451247D01*
X124194286Y-63451247D02*
X124194286Y-63308390D01*
X124194286Y-63308390D02*
X124241905Y-63117914D01*
X124241905Y-63117914D02*
X124289524Y-63022676D01*
X124289524Y-63022676D02*
X124384762Y-62927438D01*
X124384762Y-62927438D02*
X124527619Y-62879819D01*
X124527619Y-62879819D02*
X124622857Y-62879819D01*
X124622857Y-62879819D02*
X124765714Y-62927438D01*
X124765714Y-62927438D02*
X124813333Y-62975057D01*
X125765714Y-63879819D02*
X125194286Y-63879819D01*
X125480000Y-63879819D02*
X125480000Y-62879819D01*
X125480000Y-62879819D02*
X125384762Y-63022676D01*
X125384762Y-63022676D02*
X125289524Y-63117914D01*
X125289524Y-63117914D02*
X125194286Y-63165533D01*
X179006667Y-68792200D02*
X179149524Y-68839819D01*
X179149524Y-68839819D02*
X179387619Y-68839819D01*
X179387619Y-68839819D02*
X179482857Y-68792200D01*
X179482857Y-68792200D02*
X179530476Y-68744580D01*
X179530476Y-68744580D02*
X179578095Y-68649342D01*
X179578095Y-68649342D02*
X179578095Y-68554104D01*
X179578095Y-68554104D02*
X179530476Y-68458866D01*
X179530476Y-68458866D02*
X179482857Y-68411247D01*
X179482857Y-68411247D02*
X179387619Y-68363628D01*
X179387619Y-68363628D02*
X179197143Y-68316009D01*
X179197143Y-68316009D02*
X179101905Y-68268390D01*
X179101905Y-68268390D02*
X179054286Y-68220771D01*
X179054286Y-68220771D02*
X179006667Y-68125533D01*
X179006667Y-68125533D02*
X179006667Y-68030295D01*
X179006667Y-68030295D02*
X179054286Y-67935057D01*
X179054286Y-67935057D02*
X179101905Y-67887438D01*
X179101905Y-67887438D02*
X179197143Y-67839819D01*
X179197143Y-67839819D02*
X179435238Y-67839819D01*
X179435238Y-67839819D02*
X179578095Y-67887438D01*
X179911429Y-67839819D02*
X180149524Y-68839819D01*
X180149524Y-68839819D02*
X180340000Y-68125533D01*
X180340000Y-68125533D02*
X180530476Y-68839819D01*
X180530476Y-68839819D02*
X180768572Y-67839819D01*
X181673333Y-68839819D02*
X181101905Y-68839819D01*
X181387619Y-68839819D02*
X181387619Y-67839819D01*
X181387619Y-67839819D02*
X181292381Y-67982676D01*
X181292381Y-67982676D02*
X181197143Y-68077914D01*
X181197143Y-68077914D02*
X181101905Y-68125533D01*
X143249819Y-43503333D02*
X143964104Y-43503333D01*
X143964104Y-43503333D02*
X144106961Y-43550952D01*
X144106961Y-43550952D02*
X144202200Y-43646190D01*
X144202200Y-43646190D02*
X144249819Y-43789047D01*
X144249819Y-43789047D02*
X144249819Y-43884285D01*
X143249819Y-43122380D02*
X143249819Y-42503333D01*
X143249819Y-42503333D02*
X143630771Y-42836666D01*
X143630771Y-42836666D02*
X143630771Y-42693809D01*
X143630771Y-42693809D02*
X143678390Y-42598571D01*
X143678390Y-42598571D02*
X143726009Y-42550952D01*
X143726009Y-42550952D02*
X143821247Y-42503333D01*
X143821247Y-42503333D02*
X144059342Y-42503333D01*
X144059342Y-42503333D02*
X144154580Y-42550952D01*
X144154580Y-42550952D02*
X144202200Y-42598571D01*
X144202200Y-42598571D02*
X144249819Y-42693809D01*
X144249819Y-42693809D02*
X144249819Y-42979523D01*
X144249819Y-42979523D02*
X144202200Y-43074761D01*
X144202200Y-43074761D02*
X144154580Y-43122380D01*
X150963333Y-66664819D02*
X150630000Y-66188628D01*
X150391905Y-66664819D02*
X150391905Y-65664819D01*
X150391905Y-65664819D02*
X150772857Y-65664819D01*
X150772857Y-65664819D02*
X150868095Y-65712438D01*
X150868095Y-65712438D02*
X150915714Y-65760057D01*
X150915714Y-65760057D02*
X150963333Y-65855295D01*
X150963333Y-65855295D02*
X150963333Y-65998152D01*
X150963333Y-65998152D02*
X150915714Y-66093390D01*
X150915714Y-66093390D02*
X150868095Y-66141009D01*
X150868095Y-66141009D02*
X150772857Y-66188628D01*
X150772857Y-66188628D02*
X150391905Y-66188628D01*
X151344286Y-65760057D02*
X151391905Y-65712438D01*
X151391905Y-65712438D02*
X151487143Y-65664819D01*
X151487143Y-65664819D02*
X151725238Y-65664819D01*
X151725238Y-65664819D02*
X151820476Y-65712438D01*
X151820476Y-65712438D02*
X151868095Y-65760057D01*
X151868095Y-65760057D02*
X151915714Y-65855295D01*
X151915714Y-65855295D02*
X151915714Y-65950533D01*
X151915714Y-65950533D02*
X151868095Y-66093390D01*
X151868095Y-66093390D02*
X151296667Y-66664819D01*
X151296667Y-66664819D02*
X151915714Y-66664819D01*
X175544819Y-63666666D02*
X175068628Y-63999999D01*
X175544819Y-64238094D02*
X174544819Y-64238094D01*
X174544819Y-64238094D02*
X174544819Y-63857142D01*
X174544819Y-63857142D02*
X174592438Y-63761904D01*
X174592438Y-63761904D02*
X174640057Y-63714285D01*
X174640057Y-63714285D02*
X174735295Y-63666666D01*
X174735295Y-63666666D02*
X174878152Y-63666666D01*
X174878152Y-63666666D02*
X174973390Y-63714285D01*
X174973390Y-63714285D02*
X175021009Y-63761904D01*
X175021009Y-63761904D02*
X175068628Y-63857142D01*
X175068628Y-63857142D02*
X175068628Y-64238094D01*
X174878152Y-62809523D02*
X175544819Y-62809523D01*
X174497200Y-63047618D02*
X175211485Y-63285713D01*
X175211485Y-63285713D02*
X175211485Y-62666666D01*
X130123333Y-63784580D02*
X130075714Y-63832200D01*
X130075714Y-63832200D02*
X129932857Y-63879819D01*
X129932857Y-63879819D02*
X129837619Y-63879819D01*
X129837619Y-63879819D02*
X129694762Y-63832200D01*
X129694762Y-63832200D02*
X129599524Y-63736961D01*
X129599524Y-63736961D02*
X129551905Y-63641723D01*
X129551905Y-63641723D02*
X129504286Y-63451247D01*
X129504286Y-63451247D02*
X129504286Y-63308390D01*
X129504286Y-63308390D02*
X129551905Y-63117914D01*
X129551905Y-63117914D02*
X129599524Y-63022676D01*
X129599524Y-63022676D02*
X129694762Y-62927438D01*
X129694762Y-62927438D02*
X129837619Y-62879819D01*
X129837619Y-62879819D02*
X129932857Y-62879819D01*
X129932857Y-62879819D02*
X130075714Y-62927438D01*
X130075714Y-62927438D02*
X130123333Y-62975057D01*
X130504286Y-62975057D02*
X130551905Y-62927438D01*
X130551905Y-62927438D02*
X130647143Y-62879819D01*
X130647143Y-62879819D02*
X130885238Y-62879819D01*
X130885238Y-62879819D02*
X130980476Y-62927438D01*
X130980476Y-62927438D02*
X131028095Y-62975057D01*
X131028095Y-62975057D02*
X131075714Y-63070295D01*
X131075714Y-63070295D02*
X131075714Y-63165533D01*
X131075714Y-63165533D02*
X131028095Y-63308390D01*
X131028095Y-63308390D02*
X130456667Y-63879819D01*
X130456667Y-63879819D02*
X131075714Y-63879819D01*
X116078095Y-62804819D02*
X116078095Y-63614342D01*
X116078095Y-63614342D02*
X116125714Y-63709580D01*
X116125714Y-63709580D02*
X116173333Y-63757200D01*
X116173333Y-63757200D02*
X116268571Y-63804819D01*
X116268571Y-63804819D02*
X116459047Y-63804819D01*
X116459047Y-63804819D02*
X116554285Y-63757200D01*
X116554285Y-63757200D02*
X116601904Y-63709580D01*
X116601904Y-63709580D02*
X116649523Y-63614342D01*
X116649523Y-63614342D02*
X116649523Y-62804819D01*
X117649523Y-63804819D02*
X117078095Y-63804819D01*
X117363809Y-63804819D02*
X117363809Y-62804819D01*
X117363809Y-62804819D02*
X117268571Y-62947676D01*
X117268571Y-62947676D02*
X117173333Y-63042914D01*
X117173333Y-63042914D02*
X117078095Y-63090533D01*
X118089167Y-43977200D02*
X118232024Y-44024819D01*
X118232024Y-44024819D02*
X118470119Y-44024819D01*
X118470119Y-44024819D02*
X118565357Y-43977200D01*
X118565357Y-43977200D02*
X118612976Y-43929580D01*
X118612976Y-43929580D02*
X118660595Y-43834342D01*
X118660595Y-43834342D02*
X118660595Y-43739104D01*
X118660595Y-43739104D02*
X118612976Y-43643866D01*
X118612976Y-43643866D02*
X118565357Y-43596247D01*
X118565357Y-43596247D02*
X118470119Y-43548628D01*
X118470119Y-43548628D02*
X118279643Y-43501009D01*
X118279643Y-43501009D02*
X118184405Y-43453390D01*
X118184405Y-43453390D02*
X118136786Y-43405771D01*
X118136786Y-43405771D02*
X118089167Y-43310533D01*
X118089167Y-43310533D02*
X118089167Y-43215295D01*
X118089167Y-43215295D02*
X118136786Y-43120057D01*
X118136786Y-43120057D02*
X118184405Y-43072438D01*
X118184405Y-43072438D02*
X118279643Y-43024819D01*
X118279643Y-43024819D02*
X118517738Y-43024819D01*
X118517738Y-43024819D02*
X118660595Y-43072438D01*
X118993929Y-43024819D02*
X119232024Y-44024819D01*
X119232024Y-44024819D02*
X119422500Y-43310533D01*
X119422500Y-43310533D02*
X119612976Y-44024819D01*
X119612976Y-44024819D02*
X119851072Y-43024819D01*
X120184405Y-43120057D02*
X120232024Y-43072438D01*
X120232024Y-43072438D02*
X120327262Y-43024819D01*
X120327262Y-43024819D02*
X120565357Y-43024819D01*
X120565357Y-43024819D02*
X120660595Y-43072438D01*
X120660595Y-43072438D02*
X120708214Y-43120057D01*
X120708214Y-43120057D02*
X120755833Y-43215295D01*
X120755833Y-43215295D02*
X120755833Y-43310533D01*
X120755833Y-43310533D02*
X120708214Y-43453390D01*
X120708214Y-43453390D02*
X120136786Y-44024819D01*
X120136786Y-44024819D02*
X120755833Y-44024819D01*
D11*
%TO.C,C4*%
X158330000Y-64655000D02*
G75*
G03*
X158330000Y-64655000I-2120000J0D01*
G01*
%TO.C,C5*%
X168605000Y-66675000D02*
G75*
G03*
X168605000Y-66675000I-2120000J0D01*
G01*
%TO.C,R1*%
X143280000Y-64008000D02*
X144050000Y-64008000D01*
X144050000Y-62638000D02*
X144050000Y-65378000D01*
X144050000Y-65378000D02*
X150590000Y-65378000D01*
X150590000Y-62638000D02*
X144050000Y-62638000D01*
X150590000Y-65378000D02*
X150590000Y-62638000D01*
X151360000Y-64008000D02*
X150590000Y-64008000D01*
%TO.C,RV1*%
X172760000Y-45144000D02*
X172760000Y-46239000D01*
X172760000Y-45144000D02*
X183000000Y-45144000D01*
X172760000Y-49091000D02*
X172760000Y-51240000D01*
X172760000Y-54090000D02*
X172760000Y-55185000D01*
X172760000Y-55185000D02*
X183000000Y-55185000D01*
X183000000Y-45144000D02*
X183000000Y-48740000D01*
X183000000Y-51590000D02*
X183000000Y-55185000D01*
%TO.C,J1*%
X111365000Y-62095000D02*
X125365000Y-62095000D01*
X125365000Y-52205000D02*
X111365000Y-52205000D01*
X125365000Y-53410000D02*
X125365000Y-52205000D01*
X125365000Y-60890000D02*
X131135000Y-60890000D01*
X125365000Y-62095000D02*
X125365000Y-60890000D01*
X131135000Y-53410000D02*
X125365000Y-53410000D01*
X131135000Y-60890000D02*
X131135000Y-53410000D01*
%TO.C,SW3*%
X132995000Y-61905000D02*
X132995000Y-53085000D01*
X133305000Y-61905000D02*
X132995000Y-61905000D01*
X137515000Y-61905000D02*
X137205000Y-61905000D01*
X132295000Y-59995000D02*
X132795000Y-59495000D01*
X132795000Y-59495000D02*
X132295000Y-58995000D01*
X132295000Y-58995000D02*
X132295000Y-59995000D01*
X132995000Y-53085000D02*
X133305000Y-53085000D01*
X137515000Y-53085000D02*
X137515000Y-61905000D01*
X137515000Y-53085000D02*
X137205000Y-53085000D01*
%TO.C,R3*%
X160425000Y-46355000D02*
X161195000Y-46355000D01*
X161195000Y-44985000D02*
X161195000Y-47725000D01*
X161195000Y-47725000D02*
X167735000Y-47725000D01*
X167735000Y-44985000D02*
X161195000Y-44985000D01*
X167735000Y-47725000D02*
X167735000Y-44985000D01*
X168505000Y-46355000D02*
X167735000Y-46355000D01*
%TO.C,C6*%
X163930000Y-66675000D02*
G75*
G03*
X163930000Y-66675000I-2120000J0D01*
G01*
%TO.C,U3*%
X166420000Y-54510000D02*
X156140000Y-54510000D01*
X156140000Y-54510000D02*
X156140000Y-59810000D01*
X166420000Y-56160000D02*
X166420000Y-54510000D01*
X166420000Y-59810000D02*
X166420000Y-58160000D01*
X156140000Y-59810000D02*
X166420000Y-59810000D01*
X166420000Y-56160000D02*
G75*
G03*
X166420000Y-58160000I0J-1000000D01*
G01*
%TO.C,C3*%
X137895000Y-66675000D02*
G75*
G03*
X137895000Y-66675000I-2120000J0D01*
G01*
%TO.C,U2*%
X151815000Y-54510000D02*
X141535000Y-54510000D01*
X141535000Y-54510000D02*
X141535000Y-59810000D01*
X151815000Y-56160000D02*
X151815000Y-54510000D01*
X151815000Y-59810000D02*
X151815000Y-58160000D01*
X141535000Y-59810000D02*
X151815000Y-59810000D01*
X151815000Y-56160000D02*
G75*
G03*
X151815000Y-58160000I0J-1000000D01*
G01*
%TO.C,R5*%
X133755000Y-45720000D02*
X134525000Y-45720000D01*
X134525000Y-44350000D02*
X134525000Y-47090000D01*
X134525000Y-47090000D02*
X141065000Y-47090000D01*
X141065000Y-44350000D02*
X134525000Y-44350000D01*
X141065000Y-47090000D02*
X141065000Y-44350000D01*
X141835000Y-45720000D02*
X141065000Y-45720000D01*
%TO.C,C1*%
X127100000Y-66675000D02*
G75*
G03*
X127100000Y-66675000I-2120000J0D01*
G01*
%TO.C,SW1*%
X183840000Y-64885000D02*
X183840000Y-63385000D01*
X182590000Y-60885000D02*
X178090000Y-60885000D01*
X178090000Y-67385000D02*
X182590000Y-67385000D01*
X176840000Y-63385000D02*
X176840000Y-64885000D01*
%TO.C,J3*%
X144795000Y-48825000D02*
X144795000Y-47555000D01*
X146065000Y-48825000D02*
X144795000Y-48825000D01*
X148225000Y-46512071D02*
X148225000Y-46115000D01*
X148985000Y-46512071D02*
X148985000Y-46115000D01*
X150765000Y-46512071D02*
X150765000Y-46115000D01*
X151525000Y-46512071D02*
X151525000Y-46115000D01*
X145685000Y-46445000D02*
X145685000Y-46115000D01*
X146445000Y-46445000D02*
X146445000Y-46115000D01*
X144735000Y-46115000D02*
X152475000Y-46115000D01*
X147335000Y-46115000D02*
X147335000Y-43455000D01*
X149875000Y-46115000D02*
X149875000Y-43455000D01*
X152475000Y-46115000D02*
X152475000Y-43455000D01*
X144735000Y-43455000D02*
X144735000Y-46115000D01*
X145685000Y-43455000D02*
X145685000Y-37455000D01*
X145745000Y-43455000D02*
X145745000Y-37455000D01*
X145865000Y-43455000D02*
X145865000Y-37455000D01*
X145985000Y-43455000D02*
X145985000Y-37455000D01*
X146105000Y-43455000D02*
X146105000Y-37455000D01*
X146225000Y-43455000D02*
X146225000Y-37455000D01*
X146345000Y-43455000D02*
X146345000Y-37455000D01*
X148225000Y-43455000D02*
X148225000Y-37455000D01*
X150765000Y-43455000D02*
X150765000Y-37455000D01*
X152475000Y-43455000D02*
X144735000Y-43455000D01*
X145685000Y-37455000D02*
X146445000Y-37455000D01*
X146445000Y-37455000D02*
X146445000Y-43455000D01*
X148225000Y-37455000D02*
X148985000Y-37455000D01*
X148985000Y-37455000D02*
X148985000Y-43455000D01*
X150765000Y-37455000D02*
X151525000Y-37455000D01*
X151525000Y-37455000D02*
X151525000Y-43455000D01*
%TO.C,R2*%
X147090000Y-68580000D02*
X147860000Y-68580000D01*
X147860000Y-67210000D02*
X147860000Y-69950000D01*
X147860000Y-69950000D02*
X154400000Y-69950000D01*
X154400000Y-67210000D02*
X147860000Y-67210000D01*
X154400000Y-69950000D02*
X154400000Y-67210000D01*
X155170000Y-68580000D02*
X154400000Y-68580000D01*
%TO.C,R4*%
X172720000Y-59460000D02*
X172720000Y-60230000D01*
X174090000Y-60230000D02*
X171350000Y-60230000D01*
X171350000Y-60230000D02*
X171350000Y-66770000D01*
X174090000Y-66770000D02*
X174090000Y-60230000D01*
X171350000Y-66770000D02*
X174090000Y-66770000D01*
X172720000Y-67540000D02*
X172720000Y-66770000D01*
%TO.C,C2*%
X132410000Y-66675000D02*
G75*
G03*
X132410000Y-66675000I-2120000J0D01*
G01*
%TO.C,U1*%
X111720000Y-64350000D02*
X111720000Y-68991000D01*
X111720000Y-64350000D02*
X121960000Y-64350000D01*
X111720000Y-65860000D02*
X121960000Y-65860000D01*
X111720000Y-68991000D02*
X121960000Y-68991000D01*
X114990000Y-64350000D02*
X114990000Y-65860000D01*
X118691000Y-64350000D02*
X118691000Y-65860000D01*
X121960000Y-64350000D02*
X121960000Y-68991000D01*
%TO.C,SW2*%
X114232500Y-44330000D02*
X114232500Y-45713000D01*
X114232500Y-44330000D02*
X115616500Y-44330000D01*
X114472500Y-44570000D02*
X114472500Y-49410000D01*
X114472500Y-44570000D02*
X124372500Y-44570000D01*
X114472500Y-49410000D02*
X124372500Y-49410000D01*
X117392500Y-46355000D02*
X117392500Y-47625000D01*
X117392500Y-46475000D02*
X118745833Y-46475000D01*
X117392500Y-46595000D02*
X118745833Y-46595000D01*
X117392500Y-46715000D02*
X118745833Y-46715000D01*
X117392500Y-46835000D02*
X118745833Y-46835000D01*
X117392500Y-46955000D02*
X118745833Y-46955000D01*
X117392500Y-47075000D02*
X118745833Y-47075000D01*
X117392500Y-47195000D02*
X118745833Y-47195000D01*
X117392500Y-47315000D02*
X118745833Y-47315000D01*
X117392500Y-47435000D02*
X118745833Y-47435000D01*
X117392500Y-47555000D02*
X118745833Y-47555000D01*
X117392500Y-47625000D02*
X121452500Y-47625000D01*
X118745833Y-46355000D02*
X118745833Y-47625000D01*
X121452500Y-46355000D02*
X117392500Y-46355000D01*
X121452500Y-47625000D02*
X121452500Y-46355000D01*
X124372500Y-44570000D02*
X124372500Y-49410000D01*
%TD*%
%LPC*%
D12*
%TO.C,C4*%
X156210000Y-65405000D03*
X156210000Y-63905000D03*
%TD*%
%TO.C,C5*%
X165735000Y-66675000D03*
X167235000Y-66675000D03*
%TD*%
D13*
%TO.C,R1*%
X142240000Y-64008000D03*
D14*
X152400000Y-64008000D03*
%TD*%
D15*
%TO.C,RV1*%
X177880000Y-50165000D03*
D16*
X172880000Y-52665000D03*
X182880000Y-50165000D03*
X172880000Y-47665000D03*
%TD*%
D17*
%TO.C,J1*%
X129915000Y-57150000D03*
D18*
X124735000Y-57150000D03*
%TD*%
D19*
%TO.C,SW3*%
X135255000Y-61595000D03*
X135255000Y-53395000D03*
D20*
X135255000Y-59495000D03*
D21*
X135255000Y-57495000D03*
X135255000Y-55495000D03*
%TD*%
D13*
%TO.C,R3*%
X159385000Y-46355000D03*
D14*
X169545000Y-46355000D03*
%TD*%
D12*
%TO.C,C6*%
X161060000Y-66675000D03*
X162560000Y-66675000D03*
%TD*%
D22*
%TO.C,U3*%
X165090000Y-53350000D03*
D14*
X162550000Y-53350000D03*
X160010000Y-53350000D03*
X157470000Y-53350000D03*
X157470000Y-60970000D03*
X160010000Y-60970000D03*
X162550000Y-60970000D03*
X165090000Y-60970000D03*
%TD*%
D12*
%TO.C,C3*%
X135025000Y-66675000D03*
X136525000Y-66675000D03*
%TD*%
D22*
%TO.C,U2*%
X150485000Y-53350000D03*
D14*
X147945000Y-53350000D03*
X145405000Y-53350000D03*
X142865000Y-53350000D03*
X142865000Y-60970000D03*
X145405000Y-60970000D03*
X147945000Y-60970000D03*
X150485000Y-60970000D03*
%TD*%
D13*
%TO.C,R5*%
X132715000Y-45720000D03*
D14*
X142875000Y-45720000D03*
%TD*%
D12*
%TO.C,C1*%
X124230000Y-66675000D03*
X125730000Y-66675000D03*
%TD*%
D23*
%TO.C,SW1*%
X183590000Y-66385000D03*
X177090000Y-66385000D03*
X183590000Y-61885000D03*
X177090000Y-61885000D03*
%TD*%
D24*
%TO.C,J3*%
X146065000Y-47555000D03*
D25*
X148605000Y-47555000D03*
X151145000Y-47555000D03*
%TD*%
D13*
%TO.C,R2*%
X146050000Y-68580000D03*
D14*
X156210000Y-68580000D03*
%TD*%
D13*
%TO.C,R4*%
X172720000Y-58420000D03*
D14*
X172720000Y-68580000D03*
%TD*%
D12*
%TO.C,C2*%
X129540000Y-66675000D03*
X131040000Y-66675000D03*
%TD*%
D26*
%TO.C,U1*%
X114300000Y-67620000D03*
D27*
X116840000Y-67620000D03*
X119380000Y-67620000D03*
%TD*%
D22*
%TO.C,SW2*%
X115612500Y-46990000D03*
D14*
X123232500Y-46990000D03*
%TD*%
%LPD*%
M02*
