%TF.GenerationSoftware,KiCad,Pcbnew,7.0.9*%
%TF.CreationDate,2024-01-28T22:41:43+11:00*%
%TF.ProjectId,power-module,706f7765-722d-46d6-9f64-756c652e6b69,rev?*%
%TF.SameCoordinates,Original*%
%TF.FileFunction,Soldermask,Top*%
%TF.FilePolarity,Negative*%
%FSLAX46Y46*%
G04 Gerber Fmt 4.6, Leading zero omitted, Abs format (unit mm)*
G04 Created by KiCad (PCBNEW 7.0.9) date 2024-01-28 22:41:43*
%MOMM*%
%LPD*%
G01*
G04 APERTURE LIST*
%ADD10C,1.200000*%
%ADD11C,1.600000*%
%ADD12O,1.600000X1.600000*%
%ADD13C,4.000000*%
%ADD14C,2.340000*%
%ADD15R,2.020000X5.020000*%
%ADD16O,2.020000X5.020000*%
%ADD17O,3.500000X2.200000*%
%ADD18R,2.500000X1.500000*%
%ADD19O,2.500000X1.500000*%
%ADD20R,1.600000X1.600000*%
%ADD21C,2.000000*%
%ADD22R,1.700000X1.700000*%
%ADD23O,1.700000X1.700000*%
%ADD24R,1.905000X2.000000*%
%ADD25O,1.905000X2.000000*%
G04 APERTURE END LIST*
D10*
%TO.C,C4*%
X156210000Y-65405000D03*
X156210000Y-63905000D03*
%TD*%
%TO.C,C5*%
X165735000Y-66675000D03*
X167235000Y-66675000D03*
%TD*%
D11*
%TO.C,R1*%
X142240000Y-64008000D03*
D12*
X152400000Y-64008000D03*
%TD*%
D13*
%TO.C,RV1*%
X177880000Y-50165000D03*
D14*
X172880000Y-52665000D03*
X182880000Y-50165000D03*
X172880000Y-47665000D03*
%TD*%
D15*
%TO.C,J1*%
X129915000Y-57150000D03*
D16*
X124735000Y-57150000D03*
%TD*%
D17*
%TO.C,SW3*%
X135255000Y-61595000D03*
X135255000Y-53395000D03*
D18*
X135255000Y-59495000D03*
D19*
X135255000Y-57495000D03*
X135255000Y-55495000D03*
%TD*%
D11*
%TO.C,R3*%
X159385000Y-46355000D03*
D12*
X169545000Y-46355000D03*
%TD*%
D10*
%TO.C,C6*%
X161060000Y-66675000D03*
X162560000Y-66675000D03*
%TD*%
D20*
%TO.C,U3*%
X165090000Y-53350000D03*
D12*
X162550000Y-53350000D03*
X160010000Y-53350000D03*
X157470000Y-53350000D03*
X157470000Y-60970000D03*
X160010000Y-60970000D03*
X162550000Y-60970000D03*
X165090000Y-60970000D03*
%TD*%
D10*
%TO.C,C3*%
X135025000Y-66675000D03*
X136525000Y-66675000D03*
%TD*%
D20*
%TO.C,U2*%
X150485000Y-53350000D03*
D12*
X147945000Y-53350000D03*
X145405000Y-53350000D03*
X142865000Y-53350000D03*
X142865000Y-60970000D03*
X145405000Y-60970000D03*
X147945000Y-60970000D03*
X150485000Y-60970000D03*
%TD*%
D11*
%TO.C,R5*%
X132715000Y-45720000D03*
D12*
X142875000Y-45720000D03*
%TD*%
D10*
%TO.C,C1*%
X124230000Y-66675000D03*
X125730000Y-66675000D03*
%TD*%
D21*
%TO.C,SW1*%
X183590000Y-66385000D03*
X177090000Y-66385000D03*
X183590000Y-61885000D03*
X177090000Y-61885000D03*
%TD*%
D22*
%TO.C,J3*%
X146065000Y-47555000D03*
D23*
X148605000Y-47555000D03*
X151145000Y-47555000D03*
%TD*%
D11*
%TO.C,R2*%
X146050000Y-68580000D03*
D12*
X156210000Y-68580000D03*
%TD*%
D11*
%TO.C,R4*%
X172720000Y-58420000D03*
D12*
X172720000Y-68580000D03*
%TD*%
D10*
%TO.C,C2*%
X129540000Y-66675000D03*
X131040000Y-66675000D03*
%TD*%
D24*
%TO.C,U1*%
X114300000Y-67620000D03*
D25*
X116840000Y-67620000D03*
X119380000Y-67620000D03*
%TD*%
D20*
%TO.C,SW2*%
X115612500Y-46990000D03*
D12*
X123232500Y-46990000D03*
%TD*%
M02*
