%TF.GenerationSoftware,KiCad,Pcbnew,7.0.9*%
%TF.CreationDate,2024-01-29T12:05:15+11:00*%
%TF.ProjectId,rom-module,726f6d2d-6d6f-4647-956c-652e6b696361,rev?*%
%TF.SameCoordinates,Original*%
%TF.FileFunction,Legend,Top*%
%TF.FilePolarity,Positive*%
%FSLAX46Y46*%
G04 Gerber Fmt 4.6, Leading zero omitted, Abs format (unit mm)*
G04 Created by KiCad (PCBNEW 7.0.9) date 2024-01-29 12:05:15*
%MOMM*%
%LPD*%
G01*
G04 APERTURE LIST*
%ADD10C,0.300000*%
%ADD11C,0.150000*%
%ADD12C,0.120000*%
%ADD13O,1.600000X1.600000*%
%ADD14R,1.600000X1.600000*%
%ADD15O,1.700000X1.700000*%
%ADD16R,1.700000X1.700000*%
G04 APERTURE END LIST*
D10*
X194846552Y-56238094D02*
X196037028Y-55404761D01*
X194846552Y-54809523D02*
X197346552Y-54809523D01*
X197346552Y-54809523D02*
X197346552Y-55761904D01*
X197346552Y-55761904D02*
X197227504Y-55999999D01*
X197227504Y-55999999D02*
X197108457Y-56119046D01*
X197108457Y-56119046D02*
X196870361Y-56238094D01*
X196870361Y-56238094D02*
X196513219Y-56238094D01*
X196513219Y-56238094D02*
X196275123Y-56119046D01*
X196275123Y-56119046D02*
X196156076Y-55999999D01*
X196156076Y-55999999D02*
X196037028Y-55761904D01*
X196037028Y-55761904D02*
X196037028Y-54809523D01*
X197346552Y-57785713D02*
X197346552Y-58261904D01*
X197346552Y-58261904D02*
X197227504Y-58499999D01*
X197227504Y-58499999D02*
X196989409Y-58738094D01*
X196989409Y-58738094D02*
X196513219Y-58857142D01*
X196513219Y-58857142D02*
X195679885Y-58857142D01*
X195679885Y-58857142D02*
X195203695Y-58738094D01*
X195203695Y-58738094D02*
X194965600Y-58499999D01*
X194965600Y-58499999D02*
X194846552Y-58261904D01*
X194846552Y-58261904D02*
X194846552Y-57785713D01*
X194846552Y-57785713D02*
X194965600Y-57547618D01*
X194965600Y-57547618D02*
X195203695Y-57309523D01*
X195203695Y-57309523D02*
X195679885Y-57190475D01*
X195679885Y-57190475D02*
X196513219Y-57190475D01*
X196513219Y-57190475D02*
X196989409Y-57309523D01*
X196989409Y-57309523D02*
X197227504Y-57547618D01*
X197227504Y-57547618D02*
X197346552Y-57785713D01*
X194846552Y-59928571D02*
X197346552Y-59928571D01*
X197346552Y-59928571D02*
X195560838Y-60761904D01*
X195560838Y-60761904D02*
X197346552Y-61595237D01*
X197346552Y-61595237D02*
X194846552Y-61595237D01*
X194846552Y-65761904D02*
X196156076Y-65761904D01*
X196156076Y-65761904D02*
X196394171Y-65642857D01*
X196394171Y-65642857D02*
X196513219Y-65404761D01*
X196513219Y-65404761D02*
X196513219Y-64928571D01*
X196513219Y-64928571D02*
X196394171Y-64690476D01*
X194965600Y-65761904D02*
X194846552Y-65523809D01*
X194846552Y-65523809D02*
X194846552Y-64928571D01*
X194846552Y-64928571D02*
X194965600Y-64690476D01*
X194965600Y-64690476D02*
X195203695Y-64571428D01*
X195203695Y-64571428D02*
X195441790Y-64571428D01*
X195441790Y-64571428D02*
X195679885Y-64690476D01*
X195679885Y-64690476D02*
X195798933Y-64928571D01*
X195798933Y-64928571D02*
X195798933Y-65523809D01*
X195798933Y-65523809D02*
X195917980Y-65761904D01*
X196513219Y-66952381D02*
X194846552Y-66952381D01*
X196275123Y-66952381D02*
X196394171Y-67071428D01*
X196394171Y-67071428D02*
X196513219Y-67309523D01*
X196513219Y-67309523D02*
X196513219Y-67666666D01*
X196513219Y-67666666D02*
X196394171Y-67904762D01*
X196394171Y-67904762D02*
X196156076Y-68023809D01*
X196156076Y-68023809D02*
X194846552Y-68023809D01*
X194846552Y-70285714D02*
X197346552Y-70285714D01*
X194965600Y-70285714D02*
X194846552Y-70047619D01*
X194846552Y-70047619D02*
X194846552Y-69571428D01*
X194846552Y-69571428D02*
X194965600Y-69333333D01*
X194965600Y-69333333D02*
X195084647Y-69214286D01*
X195084647Y-69214286D02*
X195322742Y-69095238D01*
X195322742Y-69095238D02*
X196037028Y-69095238D01*
X196037028Y-69095238D02*
X196275123Y-69214286D01*
X196275123Y-69214286D02*
X196394171Y-69333333D01*
X196394171Y-69333333D02*
X196513219Y-69571428D01*
X196513219Y-69571428D02*
X196513219Y-70047619D01*
X196513219Y-70047619D02*
X196394171Y-70285714D01*
X194846552Y-73380953D02*
X197346552Y-73380953D01*
X197346552Y-73380953D02*
X197346552Y-74333334D01*
X197346552Y-74333334D02*
X197227504Y-74571429D01*
X197227504Y-74571429D02*
X197108457Y-74690476D01*
X197108457Y-74690476D02*
X196870361Y-74809524D01*
X196870361Y-74809524D02*
X196513219Y-74809524D01*
X196513219Y-74809524D02*
X196275123Y-74690476D01*
X196275123Y-74690476D02*
X196156076Y-74571429D01*
X196156076Y-74571429D02*
X196037028Y-74333334D01*
X196037028Y-74333334D02*
X196037028Y-73380953D01*
X195084647Y-77309524D02*
X194965600Y-77190476D01*
X194965600Y-77190476D02*
X194846552Y-76833334D01*
X194846552Y-76833334D02*
X194846552Y-76595238D01*
X194846552Y-76595238D02*
X194965600Y-76238095D01*
X194965600Y-76238095D02*
X195203695Y-76000000D01*
X195203695Y-76000000D02*
X195441790Y-75880953D01*
X195441790Y-75880953D02*
X195917980Y-75761905D01*
X195917980Y-75761905D02*
X196275123Y-75761905D01*
X196275123Y-75761905D02*
X196751314Y-75880953D01*
X196751314Y-75880953D02*
X196989409Y-76000000D01*
X196989409Y-76000000D02*
X197227504Y-76238095D01*
X197227504Y-76238095D02*
X197346552Y-76595238D01*
X197346552Y-76595238D02*
X197346552Y-76833334D01*
X197346552Y-76833334D02*
X197227504Y-77190476D01*
X197227504Y-77190476D02*
X197108457Y-77309524D01*
X194846552Y-80285715D02*
X197346552Y-80285715D01*
X197346552Y-80285715D02*
X195560838Y-81119048D01*
X195560838Y-81119048D02*
X197346552Y-81952381D01*
X197346552Y-81952381D02*
X194846552Y-81952381D01*
X194846552Y-83500000D02*
X194965600Y-83261905D01*
X194965600Y-83261905D02*
X195084647Y-83142858D01*
X195084647Y-83142858D02*
X195322742Y-83023810D01*
X195322742Y-83023810D02*
X196037028Y-83023810D01*
X196037028Y-83023810D02*
X196275123Y-83142858D01*
X196275123Y-83142858D02*
X196394171Y-83261905D01*
X196394171Y-83261905D02*
X196513219Y-83500000D01*
X196513219Y-83500000D02*
X196513219Y-83857143D01*
X196513219Y-83857143D02*
X196394171Y-84095239D01*
X196394171Y-84095239D02*
X196275123Y-84214286D01*
X196275123Y-84214286D02*
X196037028Y-84333334D01*
X196037028Y-84333334D02*
X195322742Y-84333334D01*
X195322742Y-84333334D02*
X195084647Y-84214286D01*
X195084647Y-84214286D02*
X194965600Y-84095239D01*
X194965600Y-84095239D02*
X194846552Y-83857143D01*
X194846552Y-83857143D02*
X194846552Y-83500000D01*
X194846552Y-86476191D02*
X197346552Y-86476191D01*
X194965600Y-86476191D02*
X194846552Y-86238096D01*
X194846552Y-86238096D02*
X194846552Y-85761905D01*
X194846552Y-85761905D02*
X194965600Y-85523810D01*
X194965600Y-85523810D02*
X195084647Y-85404763D01*
X195084647Y-85404763D02*
X195322742Y-85285715D01*
X195322742Y-85285715D02*
X196037028Y-85285715D01*
X196037028Y-85285715D02*
X196275123Y-85404763D01*
X196275123Y-85404763D02*
X196394171Y-85523810D01*
X196394171Y-85523810D02*
X196513219Y-85761905D01*
X196513219Y-85761905D02*
X196513219Y-86238096D01*
X196513219Y-86238096D02*
X196394171Y-86476191D01*
X196513219Y-88738096D02*
X194846552Y-88738096D01*
X196513219Y-87666668D02*
X195203695Y-87666668D01*
X195203695Y-87666668D02*
X194965600Y-87785715D01*
X194965600Y-87785715D02*
X194846552Y-88023810D01*
X194846552Y-88023810D02*
X194846552Y-88380953D01*
X194846552Y-88380953D02*
X194965600Y-88619049D01*
X194965600Y-88619049D02*
X195084647Y-88738096D01*
X194846552Y-90285715D02*
X194965600Y-90047620D01*
X194965600Y-90047620D02*
X195203695Y-89928573D01*
X195203695Y-89928573D02*
X197346552Y-89928573D01*
X194965600Y-92190478D02*
X194846552Y-91952382D01*
X194846552Y-91952382D02*
X194846552Y-91476192D01*
X194846552Y-91476192D02*
X194965600Y-91238097D01*
X194965600Y-91238097D02*
X195203695Y-91119049D01*
X195203695Y-91119049D02*
X196156076Y-91119049D01*
X196156076Y-91119049D02*
X196394171Y-91238097D01*
X196394171Y-91238097D02*
X196513219Y-91476192D01*
X196513219Y-91476192D02*
X196513219Y-91952382D01*
X196513219Y-91952382D02*
X196394171Y-92190478D01*
X196394171Y-92190478D02*
X196156076Y-92309525D01*
X196156076Y-92309525D02*
X195917980Y-92309525D01*
X195917980Y-92309525D02*
X195679885Y-91119049D01*
X190821552Y-70107143D02*
X192012028Y-69273810D01*
X190821552Y-68678572D02*
X193321552Y-68678572D01*
X193321552Y-68678572D02*
X193321552Y-69630953D01*
X193321552Y-69630953D02*
X193202504Y-69869048D01*
X193202504Y-69869048D02*
X193083457Y-69988095D01*
X193083457Y-69988095D02*
X192845361Y-70107143D01*
X192845361Y-70107143D02*
X192488219Y-70107143D01*
X192488219Y-70107143D02*
X192250123Y-69988095D01*
X192250123Y-69988095D02*
X192131076Y-69869048D01*
X192131076Y-69869048D02*
X192012028Y-69630953D01*
X192012028Y-69630953D02*
X192012028Y-68678572D01*
X190940600Y-72130953D02*
X190821552Y-71892857D01*
X190821552Y-71892857D02*
X190821552Y-71416667D01*
X190821552Y-71416667D02*
X190940600Y-71178572D01*
X190940600Y-71178572D02*
X191178695Y-71059524D01*
X191178695Y-71059524D02*
X192131076Y-71059524D01*
X192131076Y-71059524D02*
X192369171Y-71178572D01*
X192369171Y-71178572D02*
X192488219Y-71416667D01*
X192488219Y-71416667D02*
X192488219Y-71892857D01*
X192488219Y-71892857D02*
X192369171Y-72130953D01*
X192369171Y-72130953D02*
X192131076Y-72250000D01*
X192131076Y-72250000D02*
X191892980Y-72250000D01*
X191892980Y-72250000D02*
X191654885Y-71059524D01*
X192488219Y-73083333D02*
X190821552Y-73678571D01*
X190821552Y-73678571D02*
X192488219Y-74273810D01*
X190821552Y-78440476D02*
X190821552Y-77011905D01*
X190821552Y-77726191D02*
X193321552Y-77726191D01*
X193321552Y-77726191D02*
X192964409Y-77488095D01*
X192964409Y-77488095D02*
X192726314Y-77250000D01*
X192726314Y-77250000D02*
X192607266Y-77011905D01*
D11*
X134428095Y-71424819D02*
X134428095Y-72234342D01*
X134428095Y-72234342D02*
X134475714Y-72329580D01*
X134475714Y-72329580D02*
X134523333Y-72377200D01*
X134523333Y-72377200D02*
X134618571Y-72424819D01*
X134618571Y-72424819D02*
X134809047Y-72424819D01*
X134809047Y-72424819D02*
X134904285Y-72377200D01*
X134904285Y-72377200D02*
X134951904Y-72329580D01*
X134951904Y-72329580D02*
X134999523Y-72234342D01*
X134999523Y-72234342D02*
X134999523Y-71424819D01*
X135904285Y-71758152D02*
X135904285Y-72424819D01*
X135666190Y-71377200D02*
X135428095Y-72091485D01*
X135428095Y-72091485D02*
X136047142Y-72091485D01*
X157248095Y-71424819D02*
X157248095Y-72234342D01*
X157248095Y-72234342D02*
X157295714Y-72329580D01*
X157295714Y-72329580D02*
X157343333Y-72377200D01*
X157343333Y-72377200D02*
X157438571Y-72424819D01*
X157438571Y-72424819D02*
X157629047Y-72424819D01*
X157629047Y-72424819D02*
X157724285Y-72377200D01*
X157724285Y-72377200D02*
X157771904Y-72329580D01*
X157771904Y-72329580D02*
X157819523Y-72234342D01*
X157819523Y-72234342D02*
X157819523Y-71424819D01*
X158724285Y-71424819D02*
X158533809Y-71424819D01*
X158533809Y-71424819D02*
X158438571Y-71472438D01*
X158438571Y-71472438D02*
X158390952Y-71520057D01*
X158390952Y-71520057D02*
X158295714Y-71662914D01*
X158295714Y-71662914D02*
X158248095Y-71853390D01*
X158248095Y-71853390D02*
X158248095Y-72234342D01*
X158248095Y-72234342D02*
X158295714Y-72329580D01*
X158295714Y-72329580D02*
X158343333Y-72377200D01*
X158343333Y-72377200D02*
X158438571Y-72424819D01*
X158438571Y-72424819D02*
X158629047Y-72424819D01*
X158629047Y-72424819D02*
X158724285Y-72377200D01*
X158724285Y-72377200D02*
X158771904Y-72329580D01*
X158771904Y-72329580D02*
X158819523Y-72234342D01*
X158819523Y-72234342D02*
X158819523Y-71996247D01*
X158819523Y-71996247D02*
X158771904Y-71901009D01*
X158771904Y-71901009D02*
X158724285Y-71853390D01*
X158724285Y-71853390D02*
X158629047Y-71805771D01*
X158629047Y-71805771D02*
X158438571Y-71805771D01*
X158438571Y-71805771D02*
X158343333Y-71853390D01*
X158343333Y-71853390D02*
X158295714Y-71901009D01*
X158295714Y-71901009D02*
X158248095Y-71996247D01*
X157248095Y-46384819D02*
X157248095Y-47194342D01*
X157248095Y-47194342D02*
X157295714Y-47289580D01*
X157295714Y-47289580D02*
X157343333Y-47337200D01*
X157343333Y-47337200D02*
X157438571Y-47384819D01*
X157438571Y-47384819D02*
X157629047Y-47384819D01*
X157629047Y-47384819D02*
X157724285Y-47337200D01*
X157724285Y-47337200D02*
X157771904Y-47289580D01*
X157771904Y-47289580D02*
X157819523Y-47194342D01*
X157819523Y-47194342D02*
X157819523Y-46384819D01*
X158771904Y-46384819D02*
X158295714Y-46384819D01*
X158295714Y-46384819D02*
X158248095Y-46861009D01*
X158248095Y-46861009D02*
X158295714Y-46813390D01*
X158295714Y-46813390D02*
X158390952Y-46765771D01*
X158390952Y-46765771D02*
X158629047Y-46765771D01*
X158629047Y-46765771D02*
X158724285Y-46813390D01*
X158724285Y-46813390D02*
X158771904Y-46861009D01*
X158771904Y-46861009D02*
X158819523Y-46956247D01*
X158819523Y-46956247D02*
X158819523Y-47194342D01*
X158819523Y-47194342D02*
X158771904Y-47289580D01*
X158771904Y-47289580D02*
X158724285Y-47337200D01*
X158724285Y-47337200D02*
X158629047Y-47384819D01*
X158629047Y-47384819D02*
X158390952Y-47384819D01*
X158390952Y-47384819D02*
X158295714Y-47337200D01*
X158295714Y-47337200D02*
X158248095Y-47289580D01*
X134428095Y-46424819D02*
X134428095Y-47234342D01*
X134428095Y-47234342D02*
X134475714Y-47329580D01*
X134475714Y-47329580D02*
X134523333Y-47377200D01*
X134523333Y-47377200D02*
X134618571Y-47424819D01*
X134618571Y-47424819D02*
X134809047Y-47424819D01*
X134809047Y-47424819D02*
X134904285Y-47377200D01*
X134904285Y-47377200D02*
X134951904Y-47329580D01*
X134951904Y-47329580D02*
X134999523Y-47234342D01*
X134999523Y-47234342D02*
X134999523Y-46424819D01*
X135380476Y-46424819D02*
X135999523Y-46424819D01*
X135999523Y-46424819D02*
X135666190Y-46805771D01*
X135666190Y-46805771D02*
X135809047Y-46805771D01*
X135809047Y-46805771D02*
X135904285Y-46853390D01*
X135904285Y-46853390D02*
X135951904Y-46901009D01*
X135951904Y-46901009D02*
X135999523Y-46996247D01*
X135999523Y-46996247D02*
X135999523Y-47234342D01*
X135999523Y-47234342D02*
X135951904Y-47329580D01*
X135951904Y-47329580D02*
X135904285Y-47377200D01*
X135904285Y-47377200D02*
X135809047Y-47424819D01*
X135809047Y-47424819D02*
X135523333Y-47424819D01*
X135523333Y-47424819D02*
X135428095Y-47377200D01*
X135428095Y-47377200D02*
X135380476Y-47329580D01*
X179048095Y-71424819D02*
X179048095Y-72234342D01*
X179048095Y-72234342D02*
X179095714Y-72329580D01*
X179095714Y-72329580D02*
X179143333Y-72377200D01*
X179143333Y-72377200D02*
X179238571Y-72424819D01*
X179238571Y-72424819D02*
X179429047Y-72424819D01*
X179429047Y-72424819D02*
X179524285Y-72377200D01*
X179524285Y-72377200D02*
X179571904Y-72329580D01*
X179571904Y-72329580D02*
X179619523Y-72234342D01*
X179619523Y-72234342D02*
X179619523Y-71424819D01*
X180048095Y-71520057D02*
X180095714Y-71472438D01*
X180095714Y-71472438D02*
X180190952Y-71424819D01*
X180190952Y-71424819D02*
X180429047Y-71424819D01*
X180429047Y-71424819D02*
X180524285Y-71472438D01*
X180524285Y-71472438D02*
X180571904Y-71520057D01*
X180571904Y-71520057D02*
X180619523Y-71615295D01*
X180619523Y-71615295D02*
X180619523Y-71710533D01*
X180619523Y-71710533D02*
X180571904Y-71853390D01*
X180571904Y-71853390D02*
X180000476Y-72424819D01*
X180000476Y-72424819D02*
X180619523Y-72424819D01*
X179048095Y-46424819D02*
X179048095Y-47234342D01*
X179048095Y-47234342D02*
X179095714Y-47329580D01*
X179095714Y-47329580D02*
X179143333Y-47377200D01*
X179143333Y-47377200D02*
X179238571Y-47424819D01*
X179238571Y-47424819D02*
X179429047Y-47424819D01*
X179429047Y-47424819D02*
X179524285Y-47377200D01*
X179524285Y-47377200D02*
X179571904Y-47329580D01*
X179571904Y-47329580D02*
X179619523Y-47234342D01*
X179619523Y-47234342D02*
X179619523Y-46424819D01*
X180619523Y-47424819D02*
X180048095Y-47424819D01*
X180333809Y-47424819D02*
X180333809Y-46424819D01*
X180333809Y-46424819D02*
X180238571Y-46567676D01*
X180238571Y-46567676D02*
X180143333Y-46662914D01*
X180143333Y-46662914D02*
X180048095Y-46710533D01*
X100656666Y-98849819D02*
X100656666Y-99564104D01*
X100656666Y-99564104D02*
X100609047Y-99706961D01*
X100609047Y-99706961D02*
X100513809Y-99802200D01*
X100513809Y-99802200D02*
X100370952Y-99849819D01*
X100370952Y-99849819D02*
X100275714Y-99849819D01*
X101656666Y-99849819D02*
X101085238Y-99849819D01*
X101370952Y-99849819D02*
X101370952Y-98849819D01*
X101370952Y-98849819D02*
X101275714Y-98992676D01*
X101275714Y-98992676D02*
X101180476Y-99087914D01*
X101180476Y-99087914D02*
X101085238Y-99135533D01*
X117642381Y-97819104D02*
X118118571Y-97819104D01*
X117547143Y-98104819D02*
X117880476Y-97104819D01*
X117880476Y-97104819D02*
X118213809Y-98104819D01*
X118404286Y-97104819D02*
X118975714Y-97104819D01*
X118690000Y-98104819D02*
X118690000Y-97104819D01*
X119261429Y-97200057D02*
X119309048Y-97152438D01*
X119309048Y-97152438D02*
X119404286Y-97104819D01*
X119404286Y-97104819D02*
X119642381Y-97104819D01*
X119642381Y-97104819D02*
X119737619Y-97152438D01*
X119737619Y-97152438D02*
X119785238Y-97200057D01*
X119785238Y-97200057D02*
X119832857Y-97295295D01*
X119832857Y-97295295D02*
X119832857Y-97390533D01*
X119832857Y-97390533D02*
X119785238Y-97533390D01*
X119785238Y-97533390D02*
X119213810Y-98104819D01*
X119213810Y-98104819D02*
X119832857Y-98104819D01*
X120404286Y-97533390D02*
X120309048Y-97485771D01*
X120309048Y-97485771D02*
X120261429Y-97438152D01*
X120261429Y-97438152D02*
X120213810Y-97342914D01*
X120213810Y-97342914D02*
X120213810Y-97295295D01*
X120213810Y-97295295D02*
X120261429Y-97200057D01*
X120261429Y-97200057D02*
X120309048Y-97152438D01*
X120309048Y-97152438D02*
X120404286Y-97104819D01*
X120404286Y-97104819D02*
X120594762Y-97104819D01*
X120594762Y-97104819D02*
X120690000Y-97152438D01*
X120690000Y-97152438D02*
X120737619Y-97200057D01*
X120737619Y-97200057D02*
X120785238Y-97295295D01*
X120785238Y-97295295D02*
X120785238Y-97342914D01*
X120785238Y-97342914D02*
X120737619Y-97438152D01*
X120737619Y-97438152D02*
X120690000Y-97485771D01*
X120690000Y-97485771D02*
X120594762Y-97533390D01*
X120594762Y-97533390D02*
X120404286Y-97533390D01*
X120404286Y-97533390D02*
X120309048Y-97581009D01*
X120309048Y-97581009D02*
X120261429Y-97628628D01*
X120261429Y-97628628D02*
X120213810Y-97723866D01*
X120213810Y-97723866D02*
X120213810Y-97914342D01*
X120213810Y-97914342D02*
X120261429Y-98009580D01*
X120261429Y-98009580D02*
X120309048Y-98057200D01*
X120309048Y-98057200D02*
X120404286Y-98104819D01*
X120404286Y-98104819D02*
X120594762Y-98104819D01*
X120594762Y-98104819D02*
X120690000Y-98057200D01*
X120690000Y-98057200D02*
X120737619Y-98009580D01*
X120737619Y-98009580D02*
X120785238Y-97914342D01*
X120785238Y-97914342D02*
X120785238Y-97723866D01*
X120785238Y-97723866D02*
X120737619Y-97628628D01*
X120737619Y-97628628D02*
X120690000Y-97581009D01*
X120690000Y-97581009D02*
X120594762Y-97533390D01*
X121785238Y-98009580D02*
X121737619Y-98057200D01*
X121737619Y-98057200D02*
X121594762Y-98104819D01*
X121594762Y-98104819D02*
X121499524Y-98104819D01*
X121499524Y-98104819D02*
X121356667Y-98057200D01*
X121356667Y-98057200D02*
X121261429Y-97961961D01*
X121261429Y-97961961D02*
X121213810Y-97866723D01*
X121213810Y-97866723D02*
X121166191Y-97676247D01*
X121166191Y-97676247D02*
X121166191Y-97533390D01*
X121166191Y-97533390D02*
X121213810Y-97342914D01*
X121213810Y-97342914D02*
X121261429Y-97247676D01*
X121261429Y-97247676D02*
X121356667Y-97152438D01*
X121356667Y-97152438D02*
X121499524Y-97104819D01*
X121499524Y-97104819D02*
X121594762Y-97104819D01*
X121594762Y-97104819D02*
X121737619Y-97152438D01*
X121737619Y-97152438D02*
X121785238Y-97200057D01*
X122737619Y-98104819D02*
X122166191Y-98104819D01*
X122451905Y-98104819D02*
X122451905Y-97104819D01*
X122451905Y-97104819D02*
X122356667Y-97247676D01*
X122356667Y-97247676D02*
X122261429Y-97342914D01*
X122261429Y-97342914D02*
X122166191Y-97390533D01*
D12*
%TO.C,U4*%
X134190000Y-72970000D02*
G75*
G03*
X136190000Y-72970000I1000000J0D01*
G01*
X134190000Y-72970000D02*
X132540000Y-72970000D01*
X132540000Y-93410000D02*
X137840000Y-93410000D01*
X137840000Y-93410000D02*
X137840000Y-72970000D01*
X132540000Y-72970000D02*
X132540000Y-93410000D01*
X137840000Y-72970000D02*
X136190000Y-72970000D01*
%TO.C,U6*%
X157010000Y-72970000D02*
G75*
G03*
X159010000Y-72970000I1000000J0D01*
G01*
X157010000Y-72970000D02*
X155360000Y-72970000D01*
X155360000Y-93410000D02*
X160660000Y-93410000D01*
X160660000Y-93410000D02*
X160660000Y-72970000D01*
X155360000Y-72970000D02*
X155360000Y-93410000D01*
X160660000Y-72970000D02*
X159010000Y-72970000D01*
%TO.C,U5*%
X157010000Y-47930000D02*
G75*
G03*
X159010000Y-47930000I1000000J0D01*
G01*
X157010000Y-47930000D02*
X155360000Y-47930000D01*
X155360000Y-68370000D02*
X160660000Y-68370000D01*
X160660000Y-68370000D02*
X160660000Y-47930000D01*
X155360000Y-47930000D02*
X155360000Y-68370000D01*
X160660000Y-47930000D02*
X159010000Y-47930000D01*
%TO.C,U3*%
X134190000Y-47970000D02*
G75*
G03*
X136190000Y-47970000I1000000J0D01*
G01*
X134190000Y-47970000D02*
X132540000Y-47970000D01*
X132540000Y-68410000D02*
X137840000Y-68410000D01*
X137840000Y-68410000D02*
X137840000Y-47970000D01*
X132540000Y-47970000D02*
X132540000Y-68410000D01*
X137840000Y-47970000D02*
X136190000Y-47970000D01*
%TO.C,U2*%
X178810000Y-72970000D02*
G75*
G03*
X180810000Y-72970000I1000000J0D01*
G01*
X178810000Y-72970000D02*
X177160000Y-72970000D01*
X177160000Y-93410000D02*
X182460000Y-93410000D01*
X182460000Y-93410000D02*
X182460000Y-72970000D01*
X177160000Y-72970000D02*
X177160000Y-93410000D01*
X182460000Y-72970000D02*
X180810000Y-72970000D01*
%TO.C,U1*%
X178810000Y-47970000D02*
G75*
G03*
X180810000Y-47970000I1000000J0D01*
G01*
X178810000Y-47970000D02*
X177160000Y-47970000D01*
X177160000Y-68410000D02*
X182460000Y-68410000D01*
X182460000Y-68410000D02*
X182460000Y-47970000D01*
X177160000Y-47970000D02*
X177160000Y-68410000D01*
X182460000Y-47970000D02*
X180810000Y-47970000D01*
%TO.C,J1*%
X104332071Y-78965000D02*
X103935000Y-78965000D01*
X101275000Y-87345000D02*
X95275000Y-87345000D01*
X95275000Y-48485000D02*
X101275000Y-48485000D01*
X104332071Y-77185000D02*
X103935000Y-77185000D01*
X104332071Y-89125000D02*
X103935000Y-89125000D01*
X95275000Y-51785000D02*
X95275000Y-51025000D01*
X104332071Y-67025000D02*
X103935000Y-67025000D01*
X104332071Y-49245000D02*
X103935000Y-49245000D01*
X95275000Y-96745000D02*
X101275000Y-96745000D01*
X104332071Y-84805000D02*
X103935000Y-84805000D01*
X95275000Y-59405000D02*
X95275000Y-58645000D01*
X104332071Y-71345000D02*
X103935000Y-71345000D01*
X104332071Y-92425000D02*
X103935000Y-92425000D01*
X104332071Y-72105000D02*
X103935000Y-72105000D01*
X95275000Y-49245000D02*
X95275000Y-48485000D01*
X103935000Y-93315000D02*
X101275000Y-93315000D01*
X101275000Y-69565000D02*
X95275000Y-69565000D01*
X101275000Y-96845000D02*
X95275000Y-96845000D01*
X103935000Y-90775000D02*
X101275000Y-90775000D01*
X104332071Y-61945000D02*
X103935000Y-61945000D01*
X95275000Y-82265000D02*
X95275000Y-81505000D01*
X95275000Y-71345000D02*
X101275000Y-71345000D01*
X95275000Y-94965000D02*
X95275000Y-94205000D01*
X101275000Y-92425000D02*
X95275000Y-92425000D01*
X95275000Y-89125000D02*
X101275000Y-89125000D01*
X104332071Y-53565000D02*
X103935000Y-53565000D01*
X101275000Y-97505000D02*
X95275000Y-97505000D01*
X104332071Y-82265000D02*
X103935000Y-82265000D01*
X95275000Y-97505000D02*
X95275000Y-96745000D01*
X101275000Y-97085000D02*
X95275000Y-97085000D01*
X103935000Y-83155000D02*
X101275000Y-83155000D01*
X101275000Y-72105000D02*
X95275000Y-72105000D01*
X104332071Y-64485000D02*
X103935000Y-64485000D01*
X104332071Y-68805000D02*
X103935000Y-68805000D01*
X103935000Y-80615000D02*
X101275000Y-80615000D01*
X104332071Y-94965000D02*
X103935000Y-94965000D01*
X104332071Y-54325000D02*
X103935000Y-54325000D01*
X104332071Y-58645000D02*
X103935000Y-58645000D01*
X104265000Y-97505000D02*
X103935000Y-97505000D01*
X101275000Y-54325000D02*
X95275000Y-54325000D01*
X101275000Y-96965000D02*
X95275000Y-96965000D01*
X95275000Y-72105000D02*
X95275000Y-71345000D01*
X95275000Y-63725000D02*
X101275000Y-63725000D01*
X95275000Y-51025000D02*
X101275000Y-51025000D01*
X103935000Y-78075000D02*
X101275000Y-78075000D01*
X95275000Y-94205000D02*
X101275000Y-94205000D01*
X95275000Y-91665000D02*
X101275000Y-91665000D01*
X101275000Y-47535000D02*
X101275000Y-98455000D01*
X103935000Y-98455000D02*
X103935000Y-47535000D01*
X101275000Y-97445000D02*
X95275000Y-97445000D01*
X104332071Y-51025000D02*
X103935000Y-51025000D01*
X95275000Y-68805000D02*
X101275000Y-68805000D01*
X104332071Y-84045000D02*
X103935000Y-84045000D01*
X101275000Y-97325000D02*
X95275000Y-97325000D01*
X104332071Y-91665000D02*
X103935000Y-91665000D01*
X95275000Y-87345000D02*
X95275000Y-86585000D01*
X103935000Y-47535000D02*
X101275000Y-47535000D01*
X104332071Y-61185000D02*
X103935000Y-61185000D01*
X103935000Y-55215000D02*
X101275000Y-55215000D01*
X95275000Y-74645000D02*
X95275000Y-73885000D01*
X101275000Y-94965000D02*
X95275000Y-94965000D01*
X103935000Y-75535000D02*
X101275000Y-75535000D01*
X95275000Y-66265000D02*
X101275000Y-66265000D01*
X95275000Y-92425000D02*
X95275000Y-91665000D01*
X101275000Y-59405000D02*
X95275000Y-59405000D01*
X104332071Y-89885000D02*
X103935000Y-89885000D01*
X104332071Y-56865000D02*
X103935000Y-56865000D01*
X101275000Y-98455000D02*
X103935000Y-98455000D01*
X104332071Y-48485000D02*
X103935000Y-48485000D01*
X95275000Y-89885000D02*
X95275000Y-89125000D01*
X95275000Y-61945000D02*
X95275000Y-61185000D01*
X103935000Y-60295000D02*
X101275000Y-60295000D01*
X101275000Y-56865000D02*
X95275000Y-56865000D01*
X103935000Y-95855000D02*
X101275000Y-95855000D01*
X104332071Y-66265000D02*
X103935000Y-66265000D01*
X101275000Y-84805000D02*
X95275000Y-84805000D01*
X103935000Y-67915000D02*
X101275000Y-67915000D01*
X95275000Y-81505000D02*
X101275000Y-81505000D01*
X95275000Y-86585000D02*
X101275000Y-86585000D01*
X104332071Y-69565000D02*
X103935000Y-69565000D01*
X101275000Y-79725000D02*
X95275000Y-79725000D01*
X95275000Y-56105000D02*
X101275000Y-56105000D01*
X104332071Y-73885000D02*
X103935000Y-73885000D01*
X95275000Y-58645000D02*
X101275000Y-58645000D01*
X106645000Y-98395000D02*
X105375000Y-98395000D01*
X103935000Y-70455000D02*
X101275000Y-70455000D01*
X95275000Y-76425000D02*
X101275000Y-76425000D01*
X95275000Y-79725000D02*
X95275000Y-78965000D01*
X104332071Y-94205000D02*
X103935000Y-94205000D01*
X95275000Y-77185000D02*
X95275000Y-76425000D01*
X95275000Y-69565000D02*
X95275000Y-68805000D01*
X103935000Y-52675000D02*
X101275000Y-52675000D01*
X95275000Y-64485000D02*
X95275000Y-63725000D01*
X103935000Y-72995000D02*
X101275000Y-72995000D01*
X104332071Y-76425000D02*
X103935000Y-76425000D01*
X104332071Y-79725000D02*
X103935000Y-79725000D01*
X95275000Y-53565000D02*
X101275000Y-53565000D01*
X95275000Y-61185000D02*
X101275000Y-61185000D01*
X101275000Y-67025000D02*
X95275000Y-67025000D01*
X95275000Y-78965000D02*
X101275000Y-78965000D01*
X95275000Y-54325000D02*
X95275000Y-53565000D01*
X104332071Y-81505000D02*
X103935000Y-81505000D01*
X103935000Y-57755000D02*
X101275000Y-57755000D01*
X104332071Y-59405000D02*
X103935000Y-59405000D01*
X103935000Y-62835000D02*
X101275000Y-62835000D01*
X104332071Y-86585000D02*
X103935000Y-86585000D01*
X101275000Y-61945000D02*
X95275000Y-61945000D01*
X101275000Y-64485000D02*
X95275000Y-64485000D01*
X101275000Y-51785000D02*
X95275000Y-51785000D01*
X95275000Y-67025000D02*
X95275000Y-66265000D01*
X104332071Y-56105000D02*
X103935000Y-56105000D01*
X101275000Y-77185000D02*
X95275000Y-77185000D01*
X95275000Y-56865000D02*
X95275000Y-56105000D01*
X101275000Y-74645000D02*
X95275000Y-74645000D01*
X104332071Y-74645000D02*
X103935000Y-74645000D01*
X106645000Y-97125000D02*
X106645000Y-98395000D01*
X104332071Y-63725000D02*
X103935000Y-63725000D01*
X103935000Y-50135000D02*
X101275000Y-50135000D01*
X104332071Y-51785000D02*
X103935000Y-51785000D01*
X101275000Y-89885000D02*
X95275000Y-89885000D01*
X95275000Y-73885000D02*
X101275000Y-73885000D01*
X101275000Y-49245000D02*
X95275000Y-49245000D01*
X104332071Y-87345000D02*
X103935000Y-87345000D01*
X104265000Y-96745000D02*
X103935000Y-96745000D01*
X103935000Y-85695000D02*
X101275000Y-85695000D01*
X101275000Y-82265000D02*
X95275000Y-82265000D01*
X101275000Y-97205000D02*
X95275000Y-97205000D01*
X95275000Y-84805000D02*
X95275000Y-84045000D01*
X95275000Y-84045000D02*
X101275000Y-84045000D01*
X103935000Y-88235000D02*
X101275000Y-88235000D01*
X103935000Y-65375000D02*
X101275000Y-65375000D01*
%TO.C,AT28C1*%
X121190000Y-96650000D02*
G75*
G03*
X119190000Y-96650000I-1000000J0D01*
G01*
X121190000Y-96650000D02*
X122840000Y-96650000D01*
X117540000Y-96650000D02*
X119190000Y-96650000D01*
X117540000Y-66050000D02*
X117540000Y-96650000D01*
X122840000Y-96650000D02*
X122840000Y-66050000D01*
X122840000Y-66050000D02*
X117540000Y-66050000D01*
%TD*%
%LPC*%
D13*
%TO.C,U4*%
X139000000Y-74300000D03*
X139000000Y-76840000D03*
X139000000Y-79380000D03*
X139000000Y-81920000D03*
X139000000Y-84460000D03*
X139000000Y-87000000D03*
X139000000Y-89540000D03*
X139000000Y-92080000D03*
X131380000Y-92080000D03*
X131380000Y-89540000D03*
X131380000Y-87000000D03*
X131380000Y-84460000D03*
X131380000Y-81920000D03*
X131380000Y-79380000D03*
X131380000Y-76840000D03*
D14*
X131380000Y-74300000D03*
%TD*%
D13*
%TO.C,U6*%
X161820000Y-74300000D03*
X161820000Y-76840000D03*
X161820000Y-79380000D03*
X161820000Y-81920000D03*
X161820000Y-84460000D03*
X161820000Y-87000000D03*
X161820000Y-89540000D03*
X161820000Y-92080000D03*
X154200000Y-92080000D03*
X154200000Y-89540000D03*
X154200000Y-87000000D03*
X154200000Y-84460000D03*
X154200000Y-81920000D03*
X154200000Y-79380000D03*
X154200000Y-76840000D03*
D14*
X154200000Y-74300000D03*
%TD*%
D13*
%TO.C,U5*%
X161820000Y-49260000D03*
X161820000Y-51800000D03*
X161820000Y-54340000D03*
X161820000Y-56880000D03*
X161820000Y-59420000D03*
X161820000Y-61960000D03*
X161820000Y-64500000D03*
X161820000Y-67040000D03*
X154200000Y-67040000D03*
X154200000Y-64500000D03*
X154200000Y-61960000D03*
X154200000Y-59420000D03*
X154200000Y-56880000D03*
X154200000Y-54340000D03*
X154200000Y-51800000D03*
D14*
X154200000Y-49260000D03*
%TD*%
D13*
%TO.C,U3*%
X139000000Y-49300000D03*
X139000000Y-51840000D03*
X139000000Y-54380000D03*
X139000000Y-56920000D03*
X139000000Y-59460000D03*
X139000000Y-62000000D03*
X139000000Y-64540000D03*
X139000000Y-67080000D03*
X131380000Y-67080000D03*
X131380000Y-64540000D03*
X131380000Y-62000000D03*
X131380000Y-59460000D03*
X131380000Y-56920000D03*
X131380000Y-54380000D03*
X131380000Y-51840000D03*
D14*
X131380000Y-49300000D03*
%TD*%
D13*
%TO.C,U2*%
X183620000Y-74300000D03*
X183620000Y-76840000D03*
X183620000Y-79380000D03*
X183620000Y-81920000D03*
X183620000Y-84460000D03*
X183620000Y-87000000D03*
X183620000Y-89540000D03*
X183620000Y-92080000D03*
X176000000Y-92080000D03*
X176000000Y-89540000D03*
X176000000Y-87000000D03*
X176000000Y-84460000D03*
X176000000Y-81920000D03*
X176000000Y-79380000D03*
X176000000Y-76840000D03*
D14*
X176000000Y-74300000D03*
%TD*%
D13*
%TO.C,U1*%
X183620000Y-49300000D03*
X183620000Y-51840000D03*
X183620000Y-54380000D03*
X183620000Y-56920000D03*
X183620000Y-59460000D03*
X183620000Y-62000000D03*
X183620000Y-64540000D03*
X183620000Y-67080000D03*
X176000000Y-67080000D03*
X176000000Y-64540000D03*
X176000000Y-62000000D03*
X176000000Y-59460000D03*
X176000000Y-56920000D03*
X176000000Y-54380000D03*
X176000000Y-51840000D03*
D14*
X176000000Y-49300000D03*
%TD*%
D15*
%TO.C,J1*%
X105375000Y-48865000D03*
X105375000Y-51405000D03*
X105375000Y-53945000D03*
X105375000Y-56485000D03*
X105375000Y-59025000D03*
X105375000Y-61565000D03*
X105375000Y-64105000D03*
X105375000Y-66645000D03*
X105375000Y-69185000D03*
X105375000Y-71725000D03*
X105375000Y-74265000D03*
X105375000Y-76805000D03*
X105375000Y-79345000D03*
X105375000Y-81885000D03*
X105375000Y-84425000D03*
X105375000Y-86965000D03*
X105375000Y-89505000D03*
X105375000Y-92045000D03*
X105375000Y-94585000D03*
D16*
X105375000Y-97125000D03*
%TD*%
D13*
%TO.C,AT28C1*%
X116380000Y-95320000D03*
X116380000Y-92780000D03*
X116380000Y-90240000D03*
X116380000Y-87700000D03*
X116380000Y-85160000D03*
X116380000Y-82620000D03*
X116380000Y-80080000D03*
X116380000Y-77540000D03*
X116380000Y-75000000D03*
X116380000Y-72460000D03*
X116380000Y-69920000D03*
X116380000Y-67380000D03*
X124000000Y-67380000D03*
X124000000Y-69920000D03*
X124000000Y-72460000D03*
X124000000Y-75000000D03*
X124000000Y-77540000D03*
X124000000Y-80080000D03*
X124000000Y-82620000D03*
X124000000Y-85160000D03*
X124000000Y-87700000D03*
X124000000Y-90240000D03*
X124000000Y-92780000D03*
D14*
X124000000Y-95320000D03*
%TD*%
%LPD*%
M02*
